<svg id="visual" viewBox="0 0 900 600" width="900" height="600" xmlns="http://www.w3.org/2000/svg" xmlns:xlink="http://www.w3.org/1999/xlink" version="1.1"><rect x="0" y="0" width="900" height="600" fill="#FF8C00"></rect><defs><linearGradient id="grad1_0" x1="33.3%" y1="0%" x2="100%" y2="100%"><stop offset="20%" stop-color="#ff8c00" stop-opacity="1"></stop><stop offset="80%" stop-color="#ff8c00" stop-opacity="1"></stop></linearGradient></defs><defs><linearGradient id="grad2_0" x1="0%" y1="0%" x2="66.7%" y2="100%"><stop offset="20%" stop-color="#ff8c00" stop-opacity="1"></stop><stop offset="80%" stop-color="#ff8c00" stop-opacity="1"></stop></linearGradient></defs><g transform="translate(900, 0)"><path d="M0 540.8C-45.9 509.2 -91.8 477.6 -152.3 468.9C-212.8 460.2 -287.9 474.5 -317.9 437.5C-347.9 400.6 -332.7 312.6 -360.8 262.2C-388.9 211.8 -460.2 199 -497.4 161.6C-534.6 124.2 -537.7 62.1 -540.8 0L0 0Z" fill="#19B2FF"></path></g><g transform="translate(0, 600)"><path d="M0 -540.8C49.3 -509.7 98.7 -478.5 149.9 -461.3C201.1 -444 254.2 -440.6 305.6 -420.7C357.1 -400.8 406.9 -364.3 437.5 -317.9C468.2 -271.5 479.6 -215 493.6 -160.4C507.6 -105.7 524.2 -52.9 540.8 0L0 0Z" fill="#19B2FF"></path></g></svg>